<svg id="Layer_1" data-name="Layer 1" xmlns="http://www.w3.org/2000/svg" viewBox="0 0 1080 1080"><defs><style>.cls-1{fill:#0083ff;}</style></defs><path class="cls-1" d="M843.08,935H657.62a8.06,8.06,0,0,1-5.7-2.36L442.15,722.86H287V926.93a8.07,8.07,0,0,1-8.07,8.07H149.78a8.07,8.07,0,0,1-8.07-8.07V583.64a8.07,8.07,0,0,1,8.07-8.07H576.05c79.69,0,145.27-64.17,145.31-143.86a143.93,143.93,0,0,0-143.93-144H149.78a8.07,8.07,0,0,1-8.07-8.07V148.5a8.07,8.07,0,0,1,8.07-8.07H575.45c160.32,0,292,128.75,293.18,289.07,1,139.23-95.7,256-225.62,285.94L848.79,921.22A8.07,8.07,0,0,1,843.08,935Z"/><path class="cls-1" d="M314.9,469.61a12.53,12.53,0,0,1-9-3.56,12.05,12.05,0,0,1-3.67-9,11.76,11.76,0,0,1,3.67-9.08,13.69,13.69,0,0,1,18.06,0A11.76,11.76,0,0,1,327.6,457a12.05,12.05,0,0,1-3.67,9A12.5,12.5,0,0,1,314.9,469.61Z"/><path d="M359.47,469.61a62.94,62.94,0,0,1-15-1.78,42.94,42.94,0,0,1-11.75-4.46l6.35-14.49A37.51,37.51,0,0,0,349,453a43.12,43.12,0,0,0,11.14,1.51q5.36,0,7.41-1.12a3.34,3.34,0,0,0,2.06-3,2.77,2.77,0,0,0-1.95-2.62,21,21,0,0,0-5.12-1.28c-2.12-.29-4.44-.63-7-1s-5.07-.87-7.63-1.5a24.57,24.57,0,0,1-7-2.9,14.47,14.47,0,0,1-5.07-5.29,17,17,0,0,1-1.9-8.47,16.74,16.74,0,0,1,3.4-10.31,22.48,22.48,0,0,1,10-7.13,43.34,43.34,0,0,1,16-2.62,66.85,66.85,0,0,1,12.87,1.28,36.2,36.2,0,0,1,11,3.84l-6.35,14.38A30.64,30.64,0,0,0,372,423.2a40.85,40.85,0,0,0-8.47-.95q-5.34,0-7.52,1.23c-1.45.82-2.17,1.82-2.17,3a3,3,0,0,0,1.89,2.73,18.08,18.08,0,0,0,5.07,1.45q3.18.49,7,1a61.9,61.9,0,0,1,7.63,1.5,25.88,25.88,0,0,1,7,3,14.53,14.53,0,0,1,5.07,5.23,16.76,16.76,0,0,1,1.9,8.42,16.14,16.14,0,0,1-3.4,10,23.12,23.12,0,0,1-10,7.14Q369.28,469.61,359.47,469.61Z"/><path d="M392.12,423.92V408.21h43.8v15.71Zm33.32,45.69q-11.6,0-18.05-5.74t-6.46-17.33V394.73H422.1v51.59a7,7,0,0,0,1.78,5.07,6.07,6.07,0,0,0,4.57,1.84,10.91,10.91,0,0,0,6.46-1.89l5.24,14.82a18.92,18.92,0,0,1-6.58,2.62A39.19,39.19,0,0,1,425.44,469.61Z"/><path d="M472.8,469.61a29.76,29.76,0,0,1-15-3.84A28.68,28.68,0,0,1,447.06,455a36.38,36.38,0,0,1,0-33.21A28.17,28.17,0,0,1,457.81,411a30,30,0,0,1,15-3.79,24.6,24.6,0,0,1,13.2,3.34,20.6,20.6,0,0,1,8.19,10.25q2.79,6.92,2.79,17.5,0,10.8-2.67,17.72a20.24,20.24,0,0,1-8,10.25Q480.94,469.62,472.8,469.61Zm4.46-16.83a12.32,12.32,0,0,0,6.4-1.67,11.69,11.69,0,0,0,4.52-5,17.16,17.16,0,0,0,1.67-7.85,16.53,16.53,0,0,0-1.67-7.75,11.9,11.9,0,0,0-4.52-4.84,12.32,12.32,0,0,0-6.4-1.67,12.56,12.56,0,0,0-6.52,1.67,11.81,11.81,0,0,0-4.51,4.84,16.41,16.41,0,0,0-1.68,7.75,17,17,0,0,0,1.68,7.85,11.6,11.6,0,0,0,4.51,5A12.56,12.56,0,0,0,477.26,452.78Zm13.26,15.83V458.25l.11-19.95-1.12-19.95V385.93h21.18v82.68Z"/></svg>