<svg xmlns="http://www.w3.org/2000/svg" xmlns:xlink="http://www.w3.org/1999/xlink" viewBox="0 0 472.34 335.65"><defs><style>.cls-1,.cls-34{fill:#fff;}.cls-2{fill:#008890;}.cls-3{fill:#006b6b;}.cls-4{fill:#ceddef;}.cls-5{fill:#71a3d1;}.cls-6{fill:#93bbe5;}.cls-33,.cls-7{fill:#a9cbf7;}.cls-8{fill:#e5eef6;opacity:0.22;}.cls-9{fill:#eef5ff;}.cls-10{fill:#85b1e0;}.cls-11{fill:#d6e3f3;}.cls-12{fill:#89532e;}.cls-13{fill:#357ded;}.cls-14,.cls-35,.cls-36{fill:#296ed3;}.cls-15{fill:#20120c;}.cls-16{fill:#9c6639;}.cls-17{fill:#363435;}.cls-18{fill:#f89d13;}.cls-19{fill:#d17e11;}.cls-20{fill:#f2725f;}.cls-21{fill:#297eec;}.cls-22{fill:#fe7d6b;}.cls-23,.cls-24{fill:#dc6a61;}.cls-24{opacity:0.3;}.cls-25{fill:#db5c4f;}.cls-26{fill:url(#_ÂÁ_Ï_ÌÌ_È_ËÂÌÚ_17);}.cls-27{fill:url(#_ÂÁ_Ï_ÌÌ_È_ËÂÌÚ_17-2);}.cls-28{fill:url(#_ÂÁ_Ï_ÌÌ_È_ËÂÌÚ_17-3);}.cls-29{fill:url(#_ÂÁ_Ï_ÌÌ_È_ËÂÌÚ_17-4);}.cls-30{fill:url(#_ÂÁ_Ï_ÌÌ_È_ËÂÌÚ_17-5);}.cls-31{fill:url(#_ÂÁ_Ï_ÌÌ_È_ËÂÌÚ_17-6);}.cls-32{fill:url(#_ÂÁ_Ï_ÌÌ_È_ËÂÌÚ_17-7);}.cls-33,.cls-34{fill-rule:evenodd;}.cls-35{font-size:17.77px;}.cls-35,.cls-36{font-family:Montserrat-Bold, Montserrat;font-weight:700;}.cls-36{font-size:14.41px;}</style><linearGradient id="_ÂÁ_Ï_ÌÌ_È_ËÂÌÚ_17" x1="6626.99" y1="338.41" x2="6631.53" y2="338.41" gradientTransform="matrix(-1, -0.07, -0.07, 1, 6962.22, 495.78)" gradientUnits="userSpaceOnUse"><stop offset="0" stop-color="#99ceff"/><stop offset="1" stop-color="#d5e9ff"/></linearGradient><linearGradient id="_ÂÁ_Ï_ÌÌ_È_ËÂÌÚ_17-2" x1="6632.45" y1="338.41" x2="6636.99" y2="338.41" xlink:href="#_ÂÁ_Ï_ÌÌ_È_ËÂÌÚ_17"/><linearGradient id="_ÂÁ_Ï_ÌÌ_È_ËÂÌÚ_17-3" x1="6637.92" y1="338.41" x2="6642.46" y2="338.41" xlink:href="#_ÂÁ_Ï_ÌÌ_È_ËÂÌÚ_17"/><linearGradient id="_ÂÁ_Ï_ÌÌ_È_ËÂÌÚ_17-4" x1="6643.38" y1="338.41" x2="6647.92" y2="338.41" xlink:href="#_ÂÁ_Ï_ÌÌ_È_ËÂÌÚ_17"/><linearGradient id="_ÂÁ_Ï_ÌÌ_È_ËÂÌÚ_17-5" x1="6649.82" y1="338.41" x2="6652.47" y2="338.41" xlink:href="#_ÂÁ_Ï_ÌÌ_È_ËÂÌÚ_17"/><linearGradient id="_ÂÁ_Ï_ÌÌ_È_ËÂÌÚ_17-6" x1="6653.04" y1="338.41" x2="6655.69" y2="338.41" xlink:href="#_ÂÁ_Ï_ÌÌ_È_ËÂÌÚ_17"/><linearGradient id="_ÂÁ_Ï_ÌÌ_È_ËÂÌÚ_17-7" x1="6656.07" y1="338.41" x2="6658.72" y2="338.41" xlink:href="#_ÂÁ_Ï_ÌÌ_È_ËÂÌÚ_17"/></defs><g id="OBJECTS"><path class="cls-1" d="M275,420.73h-1.56l0-2.07c1.38,0,2.75,0,4.1,0l0,2.07Zm-7.81-.22c-1.38-.08-2.78-.19-4.15-.31l.18-2.06c1.36.12,2.73.22,4.09.3Zm16.65-.07-.13-2.06c1.36-.09,2.73-.2,4.09-.33l.2,2.06C286.6,420.24,285.2,420.35,283.82,420.44Zm-27-.94c-1.37-.18-2.76-.39-4.12-.62l.34-2c1.34.22,2.71.43,4.06.61Zm37.37-.14-.29-2.05c1.34-.19,2.71-.41,4.05-.65l.35,2C296.93,418.94,295.55,419.16,294.18,419.36Zm-47.63-1.66c-1.35-.3-2.71-.62-4.05-.95l.5-2c1.32.33,2.66.65,4,.94Zm57.87-.23-.45-2c1.32-.29,2.67-.62,4-1l.52,2C307.13,416.84,305.77,417.17,304.42,417.47Zm-68-2.38c-1.33-.4-2.67-.83-4-1.27l.65-2c1.3.44,2.62.86,3.93,1.25Zm78-.3-.61-2c1.3-.4,2.61-.83,3.9-1.27l.67,1.95C317.14,413.94,315.8,414.38,314.48,414.79Zm-87.88-3.1c-1.3-.5-2.6-1-3.87-1.58l.81-1.9c1.25.53,2.53,1.06,3.81,1.55Zm97.7-.37-.76-1.92c1.26-.5,2.53-1,3.77-1.57l.83,1.89C326.87,410.27,325.58,410.81,324.3,411.32ZM217,407.52c-1.25-.6-2.51-1.23-3.73-1.87l.95-1.83c1.21.63,2.45,1.25,3.68,1.84Zm116.77-.42-.92-1.85c1.22-.6,2.45-1.23,3.65-1.87l1,1.83C336.28,405.86,335,406.49,333.8,407.1Zm-126-4.48c-1.2-.7-2.4-1.42-3.57-2.16l1.1-1.75c1.15.72,2.33,1.44,3.51,2.13Zm135.12-.47-1.06-1.77c1.17-.7,2.35-1.42,3.49-2.15l1.11,1.75C345.32,400.72,344.12,401.45,342.94,402.15ZM199,397c-1.14-.79-2.28-1.61-3.39-2.43l1.23-1.66c1.1.81,2.22,1.62,3.34,2.39Zm152.64-.51-1.19-1.7c1.11-.78,2.23-1.59,3.31-2.4l1.25,1.65C353.93,394.89,352.8,395.71,351.67,396.51Zm-161-5.76c-1.07-.87-2.14-1.78-3.19-2.68l1.36-1.56c1,.89,2.08,1.78,3.14,2.64Zm169.24-.56-1.32-1.59c1.05-.87,2.1-1.76,3.12-2.66l1.37,1.55C362.07,388.4,361,389.31,359.94,390.19Zm-177-6.33c-1-.95-2-1.94-3-2.92l1.48-1.45c.95,1,1.93,1.94,2.92,2.87Zm184.81-.61-1.44-1.48c1-.95,2-1.92,2.91-2.9l1.48,1.44C369.69,381.3,368.69,382.29,367.7,383.25Zm-192.06-6.86c-.92-1-1.84-2.09-2.73-3.14l1.58-1.34c.88,1,1.78,2.08,2.69,3.1Zm199.26-.66-1.55-1.37c.91-1,1.81-2.06,2.68-3.11l1.59,1.32C376.73,373.63,375.82,374.7,374.9,375.73ZM169,368.38c-.84-1.1-1.68-2.22-2.48-3.34l1.68-1.21c.79,1.1,1.61,2.21,2.44,3.29Zm212.5-.71-1.65-1.24c.82-1.09,1.64-2.21,2.43-3.32l1.68,1.2C383.16,365.44,382.34,366.57,381.5,367.67ZM163,359.88c-.76-1.16-1.5-2.34-2.22-3.52l1.77-1.07c.71,1.16,1.44,2.32,2.18,3.46Zm224.46-.76L385.72,358c.73-1.14,1.46-2.32,2.16-3.49l1.77,1.06C388.94,356.76,388.2,358,387.46,359.12ZM157.68,351c-.66-1.22-1.31-2.46-1.93-3.69l1.84-.93c.61,1.21,1.25,2.43,1.9,3.63Zm235.05-.83-1.82-1c.64-1.21,1.27-2.44,1.88-3.66l1.85.92C394,347.65,393.38,348.9,392.73,350.12Zm-239.66-8.49c-.56-1.26-1.11-2.54-1.63-3.82l1.91-.78c.52,1.25,1.06,2.52,1.61,3.76Zm244.21-.89-1.89-.83c.55-1.25,1.08-2.53,1.59-3.8l1.92.77C398.38,338.17,397.84,339.47,397.28,340.74ZM149.21,332c-.46-1.3-.91-2.63-1.33-3.94l2-.64c.42,1.3.86,2.61,1.32,3.89Zm251.88-1-1.95-.68c.44-1.29.88-2.6,1.28-3.91l2,.61C402,328.37,401.54,329.71,401.09,331Zm-255-9c-.36-1.33-.7-2.69-1-4l2-.47c.31,1.32.64,2.66,1,4Zm258-1-2-.53c.35-1.31.67-2.65,1-4l2,.46C404.79,318.34,404.46,319.7,404.11,321ZM143.8,311.88c-.25-1.36-.48-2.74-.69-4.11l2-.32c.21,1.35.44,2.71.69,4.05Zm262.54-1-2-.36c.24-1.34.46-2.7.65-4.05l2.05.3C406.81,308.12,406.58,309.5,406.34,310.86Zm-264-9.29c-.15-1.37-.27-2.77-.38-4.15l2.07-.15c.1,1.36.22,2.73.37,4.08Zm265.47-1-2.06-.2c.13-1.36.25-2.73.34-4.09l2.06.14C408,297.78,407.9,299.17,407.77,300.55ZM141.6,291.18c0-1.28-.06-2.59-.06-3.89V287h2.07v.27c0,1.28,0,2.57.06,3.83Zm266.79-1-2.07-.05c0-.93,0-1.88,0-2.82,0-.42,0-.85,0-1.28l2.07,0c0,.43,0,.87,0,1.3C408.42,288.24,408.41,289.21,408.39,290.16Zm-264.62-9.29-2.07-.1c.07-1.38.16-2.78.27-4.16l2.06.17C143.92,278.13,143.83,279.51,143.77,280.87Zm262.37-1c-.07-1.36-.17-2.74-.29-4.09l2.06-.18c.12,1.38.22,2.77.3,4.15Zm-261.48-9.2-2.06-.26c.18-1.37.37-2.76.59-4.13l2,.33C145,267.94,144.83,269.31,144.66,270.66Zm260.52-1c-.19-1.35-.39-2.71-.61-4l2-.34c.22,1.36.43,2.75.61,4.12Zm-258.84-9.1-2-.42c.28-1.36.59-2.72.91-4.07l2,.48C146.91,257.87,146.61,259.21,146.34,260.55Zm257.08-1c-.29-1.34-.6-2.68-.93-4l2-.5c.33,1.34.65,2.71.94,4.06Zm-254.61-9-2-.58c.39-1.33.8-2.67,1.23-4l2,.64C149.59,248,149.19,249.29,148.81,250.6Zm252.06-1c-.39-1.31-.81-2.63-1.24-3.92l2-.65c.44,1.31.86,2.65,1.26,4Zm-248.82-8.77-1.93-.73c.49-1.3,1-2.61,1.54-3.89l1.91.79C153.05,238.3,152.54,239.58,152.05,240.86Zm245.5-.93c-.49-1.27-1-2.55-1.53-3.79l1.9-.81c.54,1.27,1.06,2.56,1.56,3.85ZM156.06,231.4l-1.87-.88c.59-1.26,1.21-2.52,1.84-3.75l1.84.94C157.25,228.92,156.64,230.16,156.06,231.4Zm237.43-.86c-.58-1.22-1.2-2.45-1.83-3.66l1.84-.95c.64,1.22,1.26,2.48,1.86,3.72ZM160.8,222.29l-1.8-1c.69-1.2,1.4-2.41,2.13-3.59l1.76,1.08C162.18,219.91,161.47,221.1,160.8,222.29Zm227.91-.79c-.68-1.18-1.39-2.36-2.11-3.51l1.76-1.1c.72,1.18,1.45,2.38,2.14,3.57Zm-222.48-7.92-1.71-1.17c.78-1.14,1.58-2.29,2.4-3.41l1.67,1.22C167.79,211.32,167,212.45,166.23,213.58Zm217-.73c-.77-1.12-1.57-2.25-2.37-3.34l1.66-1.23c.82,1.12,1.63,2.26,2.41,3.39Zm-210.91-7.53L170.71,204c.86-1.08,1.75-2.16,2.65-3.22l1.57,1.34C174.05,203.19,173.17,204.26,172.32,205.32Zm204.78-.68c-.86-1-1.74-2.11-2.63-3.14l1.56-1.35c.9,1,1.8,2.12,2.67,3.19ZM179,197.56l-1.51-1.41c.95-1,1.92-2,2.9-3l1.46,1.46C180.92,195.58,180,196.57,179,197.56Zm191.31-.62c-.94-1-1.9-2-2.87-2.94l1.46-1.46c1,1,2,2,2.91,3Zm-184-6.59-1.39-1.52c1-.94,2.06-1.86,3.11-2.76l1.35,1.56C188.36,188.52,187.33,189.43,186.32,190.35ZM363,189.77c-1-.91-2.05-1.82-3.08-2.7l1.33-1.57c1.06.89,2.11,1.81,3.14,2.74Zm-168.86-6-1.27-1.62c1.09-.86,2.21-1.7,3.32-2.52l1.22,1.67C196.32,182.06,195.22,182.9,194.14,183.73Zm161-.53c-1.08-.83-2.19-1.66-3.29-2.46l1.21-1.67c1.12.81,2.25,1.65,3.34,2.49Zm-152.68-5.46L201.31,176c1.15-.76,2.33-1.52,3.5-2.24l1.09,1.75C204.74,176.25,203.58,177,202.45,177.74Zm144.32-.48c-1.14-.75-2.31-1.49-3.48-2.2l1.08-1.76c1.18.72,2.37,1.47,3.53,2.23ZM211.2,172.42l-1-1.81c1.21-.67,2.44-1.33,3.67-2l.94,1.84C213.6,171.11,212.38,171.76,211.2,172.42ZM338,172c-1.19-.66-2.42-1.3-3.63-1.92l.93-1.84c1.24.63,2.48,1.28,3.69,1.95ZM220.33,167.8l-.87-1.88c1.26-.57,2.54-1.14,3.81-1.67l.8,1.9C222.82,166.68,221.56,167.23,220.33,167.8Zm108.44-.39c-1.25-.56-2.52-1.11-3.78-1.63l.79-1.91c1.28.53,2.57,1.08,3.83,1.65Zm-99-3.5-.71-1.94c1.3-.48,2.62-.94,3.93-1.37l.65,2C232.36,163,231.06,163.44,229.78,163.91Zm89.46-.34c-1.29-.46-2.6-.91-3.9-1.33l.63-2c1.32.43,2.66.88,4,1.35Zm-79.7-2.81-.56-2c1.33-.37,2.69-.73,4-1.06l.49,2C242.18,160.05,240.85,160.4,239.54,160.76Zm69.9-.27c-1.31-.35-2.65-.69-4-1l.47-2c1.35.32,2.71.67,4,1Zm-59.93-2.1-.4-2c1.36-.26,2.74-.51,4.1-.73l.34,2C252.2,157.89,250.84,158.13,249.51,158.39Zm49.94-.19c-1.34-.25-2.7-.49-4-.7l.32-2c1.36.21,2.74.45,4.1.71Zm-39.81-1.39-.24-2.05c1.37-.16,2.77-.3,4.14-.42l.18,2.06C262.36,156.52,261,156.65,259.64,156.81Zm29.67-.11c-1.35-.15-2.73-.28-4.08-.38l.15-2.06c1.38.1,2.78.23,4.15.38ZM269.86,156l-.08-2.06c1.38-.06,2.78-.09,4.16-.1l0,2.07C272.6,155.94,271.22,156,269.86,156Zm9.22,0c-1.36,0-2.74-.06-4.1-.06v-2.07c1.38,0,2.79,0,4.17.06Z" transform="translate(-22.64 -107.28)"/><path class="cls-2" d="M105.65,222.52a61.82,61.82,0,0,0-2.56-14.68l-5.86,7.9,5-10.82c-1.76-5.88-4-12.14-6.46-18l-5.36,10,3.07-15.4c-.72-1.62-1.44-3.19-2.15-4.69a86.11,86.11,0,0,0-7.83-13.76l-2.39,8-.52-11.52c-5.07-5.19-11-6.71-16.24,4.56a23.16,23.16,0,0,0-1.62,13L76.3,188.35l-12-4.49a72.07,72.07,0,0,0,7.54,15.66l15,9.58-11.14-3.8a154.52,154.52,0,0,0,11.22,13.95l5.4,1.75-3,.84c2.35,2.5,4.22,4.33,5.24,5.25,3.14,2.87,5.28,3.24,6.6,3a5.39,5.39,0,0,0,2.7-1.08C104.66,228.53,105.69,227,105.65,222.52Z" transform="translate(-22.64 -107.28)"/><path class="cls-2" d="M154,231.82a7.3,7.3,0,0,0,.67-2.51c.08-3.55-3.94-2.28-3.94-2.28a28.32,28.32,0,0,0-8.61,6.13l-2.06,9.45,0-7.07a38.67,38.67,0,0,0-5.83,10.39l2.19,7.82-3-5.5a41.72,41.72,0,0,0-1.55,6.72l2.11,4.34-2.36-2a18.44,18.44,0,0,0,.27,5.44c1.7,6.93,6.8,4.12,6.8,4.12,4.56-1.47,7.94-5.35,9.75-10l-6.89,3.62,7.83-6.69a22.16,22.16,0,0,0,.48-6.93c0-.53-.07-1.06-.07-1.57l-6,3.75,6.2-6.41a32.35,32.35,0,0,1,3.37-9.3l-3.45,1.15Z" transform="translate(-22.64 -107.28)"/><path class="cls-3" d="M151.65,288.79a17,17,0,0,1-5.92-3.19c-2.86-2.27-6.61-6.53-8.24-13.94a35.69,35.69,0,0,1,.17-14.82,60.92,60.92,0,0,1,4.58-13.39,79.09,79.09,0,0,1,8-13.45l.43.33a79.16,79.16,0,0,0-7.92,13.36c-3.35,7.19-6.9,17.85-4.7,27.85,1.59,7.24,5.24,11.41,8,13.62a17.25,17.25,0,0,0,5.73,3.11Z" transform="translate(-22.64 -107.28)"/><path class="cls-2" d="M76.14,219.46l-2.69-8.14-.43-.38a48.71,48.71,0,0,0-15.14-8.49l5.25,8.9L54,201.16a79,79,0,0,0-14-2.82l3.39,6.51L36.17,198a38.17,38.17,0,0,0-4.84,0c-6.78.59-16.72,9.25,2.5,21,2.45,1.5,5,2.91,7.7,4.22l10.95-4.71-7.9,6.16c3.82,1.75,7.72,3.3,11.55,4.67l9.66-5.48L58,230.05c4.92,1.69,9.65,3,13.82,4.07l7.81-4.28-4.32,5.1c5.14,1.12,9,1.64,10.75,1.53,4.06-.25,4.06-3.93,3.79-5.8A10.39,10.39,0,0,0,88.74,228h0c-1.56-2.47-5.33-7.68-13-14.69Z" transform="translate(-22.64 -107.28)"/><path class="cls-3" d="M139,293.24l-.46.3c-.24-.39-25-38.82-42.7-56.57-9.2-9.25-26.13-16.38-38.72-20.74a253.32,253.32,0,0,0-25.39-7.32l.12-.53a257.15,257.15,0,0,1,25.44,7.33,171.63,171.63,0,0,1,21.28,8.85c7.62,3.86,13.56,7.91,17.66,12C113.92,254.38,138.74,292.86,139,293.24Z" transform="translate(-22.64 -107.28)"/><path class="cls-3" d="M151.88,298.09a170.55,170.55,0,0,1-13-13,267,267,0,0,1-28.08-37c-10.4-16.53-20.18-37.84-26.55-52.8-6.9-16.21-11.4-28.68-11.45-28.8l.51-.18c0,.12,4.54,12.57,11.44,28.77,6.36,14.94,16.13,36.22,26.51,52.72a266.39,266.39,0,0,0,28,36.92,172.87,172.87,0,0,0,12.94,13Z" transform="translate(-22.64 -107.28)"/><path class="cls-2" d="M153.34,191.21a6.83,6.83,0,0,0-4-.48,42.79,42.79,0,0,0-12.74,5.35l-3.38,5.68.5-3.81A56.23,56.23,0,0,0,123.46,207l-1.6,10-1-6.83c-.77,1-1.49,2.09-2.15,3.17a32.15,32.15,0,0,0-4.1,10.65l2.87,5.19-3.18-3.39c-1.27,8.74.74,16.59,2.37,18.66,2.4,3.06,6.28.9,6.28.9a30.62,30.62,0,0,0,10.25-12.2l-10.85,4.33,12.39-8.05a79.2,79.2,0,0,0,3.28-13.93l-10.54,8.87,11.19-12.74c0-.26.08-.52.13-.77a15.63,15.63,0,0,1,2.14-5.61l-4.43.45,5.62-2.12c4.2-5.18,10.77-7,12.22-8.73C155.59,193.45,154.43,192.07,153.34,191.21Z" transform="translate(-22.64 -107.28)"/><path class="cls-3" d="M153,294.71a98.51,98.51,0,0,1-13.19-12.18,100.82,100.82,0,0,1-10.79-14,75.8,75.8,0,0,1-8.52-18.34,38.8,38.8,0,0,1-.39-21.37,51.82,51.82,0,0,1,8.22-17A72.34,72.34,0,0,1,143.1,196.6l.31.44a71.66,71.66,0,0,0-14.7,15.1c-6.15,8.61-12.5,22.15-7.75,37.84,4.2,13.83,12.76,25.13,19.2,32.18a97.63,97.63,0,0,0,13.11,12.11Z" transform="translate(-22.64 -107.28)"/><path class="cls-2" d="M75.16,247.54l6.87,5-10.4-4.13a36.07,36.07,0,0,0-12.75,7.54l8.23,2.58-10.86-.14c-.46.45-.92.91-1.38,1.4-16.46,17.25-11.54,29-7.8,29.19,1.46.06,3.88-1.36,6.6-3.37l3.95-13.2-1.07,11c4.51-3.66,9.18-8.06,11.4-9.71a50.54,50.54,0,0,1,6.38-4l1.58-7.56.75,6.35a95.26,95.26,0,0,1,9.88-4.21L90,258.09l-1.33,5.44a28.3,28.3,0,0,1,7.68-1.67h0a9.66,9.66,0,0,0,3-.4,5.14,5.14,0,0,0,2.46-1.78v0c.14-.21.25-.41.35-.58h0l.23-.46a2.79,2.79,0,0,0,.1-1.05c-.24-1.39-1.57-4.59-8.63-7.24C88.73,248.44,82.47,246.28,75.16,247.54Z" transform="translate(-22.64 -107.28)"/><path class="cls-3" d="M134.76,295.63l-.52.13a56.86,56.86,0,0,0-5.91-13.38,65.81,65.81,0,0,0-24-23.7c-13.29-7.58-27.46-2-37,4a88.76,88.76,0,0,0-17.76,15.05l-.41-.35A88.73,88.73,0,0,1,67,262.22a49.75,49.75,0,0,1,17.82-7.3,28.91,28.91,0,0,1,19.74,3.29,66.09,66.09,0,0,1,15,11.7,67.25,67.25,0,0,1,9.22,12.21A56.24,56.24,0,0,1,134.76,295.63Z" transform="translate(-22.64 -107.28)"/><path class="cls-2" d="M444.5,373.36a50.35,50.35,0,0,0,11.61-3.8l-7.1-3.83,9.37,2.8c4.57-2.13,9.38-4.72,13.85-7.37L463.45,358l12.86.68c1.24-.78,2.43-1.55,3.56-2.3a71.12,71.12,0,0,0,10.24-8l-6.82-1,9.3-1.78c3.62-4.73,4.14-9.75-5.62-12.65a18.93,18.93,0,0,0-10.77.23l-7.43,12.31L471,335.23a58.79,58.79,0,0,0-11.83,8l-6,13.29,1.77-9.49a126.52,126.52,0,0,0-10,10.75l-.79,4.59-1-2.35c-1.75,2.21-3,3.95-3.64,4.88-2,2.89-2,4.67-1.64,5.71a4.4,4.4,0,0,0,1.2,2.06C439.5,373.27,440.83,373.93,444.5,373.36Z" transform="translate(-22.64 -107.28)"/><path class="cls-2" d="M442.66,413.72a5.92,5.92,0,0,0,2.11.25c2.89-.35,1.39-3.47,1.39-3.47a23.3,23.3,0,0,0-6-6.26l-7.91-.56,5.74-.85a31.76,31.76,0,0,0-9.12-3.51l-6.1,2.7,4.12-3.08a34.85,34.85,0,0,0-5.64-.47L418,400.69l1.36-2.15a15.29,15.29,0,0,0-4.39.86c-5.43,2.2-2.54,6-2.54,6,1.73,3.53,5.28,5.81,9.29,6.73L417.94,407l6.36,5.57a18.05,18.05,0,0,0,5.68-.42,12.19,12.19,0,0,1,1.26-.25l-3.75-4.43,5.94,4.28a26.16,26.16,0,0,1,7.94,1.63L440,410.69Z" transform="translate(-22.64 -107.28)"/><path class="cls-3" d="M396.12,418.53a14.19,14.19,0,0,1,1.9-5.18A19.5,19.5,0,0,1,408.36,405a29.23,29.23,0,0,1,12.05-1.61,49.81,49.81,0,0,1,11.41,2.14,65.22,65.22,0,0,1,11.87,4.88l-.22.39A64.83,64.83,0,0,0,431.69,406c-6.23-1.88-15.31-3.49-23.17-.53a19.06,19.06,0,0,0-10.11,8.12,14,14,0,0,0-1.84,5Z" transform="translate(-22.64 -107.28)"/><path class="cls-2" d="M443.5,349.05l6.29-3.15.26-.39a40,40,0,0,0,5.1-13.29l-6.61,5.31,7.2-8.63a66.06,66.06,0,0,0,.64-11.7l-4.89,3.52,4.69-6.65a29.07,29.07,0,0,0-.59-3.93c-1.27-5.43-9.47-12.48-16.75,4.51-.93,2.17-1.77,4.43-2.52,6.75l5.12,8.33-5.94-5.68c-1,3.3-1.77,6.66-2.42,9.93l5.58,7.19-5.9-5.57c-.78,4.19-1.33,8.2-1.67,11.7l4.39,5.83-4.64-2.9a41.08,41.08,0,0,0,0,8.91c.69,3.27,3.67,2.83,5.16,2.39a8.37,8.37,0,0,0,2-1.25h0c1.82-1.55,5.6-5.23,10.38-12.32Z" transform="translate(-22.64 -107.28)"/><path class="cls-3" d="M391,408.78l-.29-.34c.28-.24,28.55-24.91,40.88-41.34,6.42-8.56,10.21-23.15,12.27-33.88a209.66,209.66,0,0,0,2.94-21.48l.44,0a206.36,206.36,0,0,1-2.95,21.52,141.94,141.94,0,0,1-4.66,18.32c-2.24,6.63-4.82,11.93-7.69,15.75C419.61,383.84,391.3,408.53,391,408.78Z" transform="translate(-22.64 -107.28)"/><path class="cls-3" d="M388.61,419.82a139.82,139.82,0,0,1,9-12.07,218.92,218.92,0,0,1,26.72-27.16c12.19-10.4,28.33-20.85,39.73-27.79,12.34-7.51,21.93-12.64,22-12.69l.21.39c-.1.05-9.68,5.17-22,12.68-11.38,6.93-27.5,17.37-39.67,27.75A218.73,218.73,0,0,0,398,408a138.26,138.26,0,0,0-9,12Z" transform="translate(-22.64 -107.28)"/><path class="cls-2" d="M475.54,408.38a5.46,5.46,0,0,0-.09-3.32,34.48,34.48,0,0,0-5.84-9.71l-5-2.08,3.16,0a46.81,46.81,0,0,0-8.58-7.24l-8.29-.12,5.43-1.58c-.93-.5-1.88-1-2.83-1.38a26.48,26.48,0,0,0-9.13-2.06l-3.88,2.94,2.38-3c-7.24,0-13.38,2.56-14.87,4.12-2.2,2.31,0,5.21,0,5.21A25.06,25.06,0,0,0,439.12,397l-4.8-8.3,8,9.11a65.19,65.19,0,0,0,11.7,1l-8.44-7.51,11.66,7.57.64,0a12.79,12.79,0,0,1,4.81,1.08l-.89-3.54,2.38,4.3c4.7,2.81,7,7.92,8.54,8.89C474,410.47,475,409.37,475.54,408.38Z" transform="translate(-22.64 -107.28)"/><path class="cls-3" d="M391.48,420.29a80.59,80.59,0,0,1,8.33-12.15,82.19,82.19,0,0,1,10.13-10.42,62.29,62.29,0,0,1,13.88-9.08,31.75,31.75,0,0,1,17.3-2.84,42.43,42.43,0,0,1,14.74,4.68A59.49,59.49,0,0,1,470,400.7l-.32.31a59,59,0,0,0-14-10.15c-7.71-4-19.46-7.53-31.63-1.82-10.73,5-18.9,13.32-23.86,19.38a80.61,80.61,0,0,0-8.28,12.07Z" transform="translate(-22.64 -107.28)"/><path class="cls-2" d="M420.59,351.56l-3.24,6.17,2.12-8.93a29.78,29.78,0,0,0-7.62-9.46l-1.13,7-1.17-8.84-1.29-.95c-15.95-11.33-24.94-5.94-24.62-2.89.13,1.19,1.56,3,3.52,5l11.18,1.64-9,.43c3.51,3.22,7.63,6.5,9.23,8.1a42.67,42.67,0,0,1,4,4.71l6.32.4-5.06,1.35a78.61,78.61,0,0,1,4.58,7.53l5.4,2-4.57-.44a23.47,23.47,0,0,1,2.26,6h0a8.09,8.09,0,0,0,.69,2.4,4.08,4.08,0,0,0,1.73,1.79h0a3.45,3.45,0,0,0,.51.21h0l.39.13a2.32,2.32,0,0,0,.87,0c1.1-.35,3.54-1.81,4.86-7.86C421.46,362.69,422.47,357.36,420.59,351.56Z" transform="translate(-22.64 -107.28)"/><path class="cls-3" d="M388.58,405.63l-.17-.41a45.79,45.79,0,0,0,10.17-6.38A54.13,54.13,0,0,0,415,376.56c4.58-11.69-1.61-22.53-7.62-29.57a72.52,72.52,0,0,0-14.31-12.63l.23-.38a72.93,72.93,0,0,1,14.42,12.72,40.74,40.74,0,0,1,8,13.61,23.74,23.74,0,0,1-.34,16.42,54,54,0,0,1-7.73,13.54,55.18,55.18,0,0,1-8.82,8.93A46.64,46.64,0,0,1,388.58,405.63Z" transform="translate(-22.64 -107.28)"/><ellipse class="cls-4" cx="227.36" cy="313.32" rx="192.03" ry="17.03"/><path class="cls-5" d="M51.06,254.53l25.67,153.1a12.91,12.91,0,0,0,12,10.34c.18,0,194.1-4.73,194.1-4.73L257.46,250.45a4.15,4.15,0,0,0-4.14-3.32L61.1,244.71c-5.34,0-8,2.33-9.21,4.82A8.63,8.63,0,0,0,51.06,254.53Z" transform="translate(-22.64 -107.28)"/><path class="cls-6" d="M56.24,249.44a4.36,4.36,0,0,0,.09,1l26,156.42A20.33,20.33,0,0,0,88.69,418c.26.23.53.47.8.69a21,21,0,0,0,13.27,4.6H286.14a4.9,4.9,0,0,0,4.77-5.75l-1.55-9.18L262.18,248a4.14,4.14,0,0,0-4.13-3.32H61.1A4.94,4.94,0,0,0,56.24,249.44Z" transform="translate(-22.64 -107.28)"/><polygon class="cls-7" points="42.93 145.97 42.96 146.13 67.82 295.59 257.01 295.59 231.65 145.97 42.93 145.97"/><polygon class="cls-8" points="186.42 301.05 165.06 301.05 69.65 137.43 91.01 137.43 186.42 301.05"/><polygon class="cls-8" points="152.25 301.05 144.01 301.05 48.59 137.43 56.84 137.43 152.25 301.05"/><path class="cls-5" d="M249,408.33H403.84a7.47,7.47,0,0,1,0,14.93H249a7.47,7.47,0,1,1,0-14.93Z" transform="translate(-22.64 -107.28)"/><path class="cls-5" d="M96.38,408.33H254.15a7.47,7.47,0,0,1,0,14.93H96.38a7.47,7.47,0,0,1,0-14.93Z" transform="translate(-22.64 -107.28)"/><rect class="cls-6" x="86.98" y="304.05" width="18.58" height="5.57" rx="2.33"/><rect class="cls-6" x="112.79" y="304.05" width="13.47" height="5.57" rx="2.33"/><path class="cls-1" d="M178.14,301.65A17.62,17.62,0,1,0,195.77,284,17.61,17.61,0,0,0,178.14,301.65Z" transform="translate(-22.64 -107.28)"/><polygon class="cls-9" points="102.79 299.16 88.38 224.9 143.88 165.36 140.98 161.28 82.55 223.09 97.12 298.36 102.79 299.16"/><polygon class="cls-10" points="137.49 164.97 131 171.84 137.85 171.84 140.08 169.45 137.49 164.97"/><polygon class="cls-10" points="85.42 237.94 89.86 232.54 89.58 231.12 84.02 230.68 85.42 237.94"/><path class="cls-1" d="M119.51,300.55h9.58a.73.73,0,0,1,.73.73v7.23a.72.72,0,0,1-.72.72H119.5a.72.72,0,0,1-.72-.72v-7.23A.72.72,0,0,1,119.51,300.55Z"/><path class="cls-9" d="M122.59,408.94c23.6,0,42.73,5.53,42.72,15.39l-85.45,0C79.87,414.43,99,408.93,122.59,408.94Z" transform="translate(-22.64 -107.28)"/><path class="cls-10" d="M122.59,415.09c4.29,0,3.44-3.25,1.84-6.14h-1.84a133.14,133.14,0,0,0-14.81.79C110.16,411.31,116.5,415.09,122.59,415.09Z" transform="translate(-22.64 -107.28)"/><path class="cls-11" d="M158.79,277.54a9.05,9.05,0,1,0-.23-12.8A9.05,9.05,0,0,0,158.79,277.54Z" transform="translate(-22.64 -107.28)"/><path class="cls-10" d="M162,274.17a4.37,4.37,0,1,0-.11-6.18A4.36,4.36,0,0,0,162,274.17Z" transform="translate(-22.64 -107.28)"/><path class="cls-11" d="M99.13,331.24a9.05,9.05,0,1,0,9.05-9A9.05,9.05,0,0,0,99.13,331.24Z" transform="translate(-22.64 -107.28)"/><path class="cls-10" d="M103.81,331.24a4.37,4.37,0,1,0,4.37-4.36A4.36,4.36,0,0,0,103.81,331.24Z" transform="translate(-22.64 -107.28)"/><path class="cls-11" d="M113.55,406a9,9,0,1,0,9-9.05A9,9,0,0,0,113.55,406Z" transform="translate(-22.64 -107.28)"/><path class="cls-10" d="M118.22,406a4.38,4.38,0,1,0,4.38-4.37A4.37,4.37,0,0,0,118.22,406Z" transform="translate(-22.64 -107.28)"/><rect class="cls-9" x="164.38" y="274.03" width="13.85" height="5.66" transform="translate(-169.52 100.62) rotate(-46.03)"/><path class="cls-11" d="M221.49,289.65c-17.6-17-33.94-28-49.85-12.09-14.63,14.61-3.72,32.4,13.87,49.38Z" transform="translate(-22.64 -107.28)"/><path class="cls-9" d="M158.56,264.74a9,9,0,1,0,12.8-.23A9.05,9.05,0,0,0,158.56,264.74ZM108.17,340.3a9.05,9.05,0,1,0-9-9.06A9.06,9.06,0,0,0,108.17,340.3ZM113.55,406a9,9,0,1,0,9-9.05A9,9,0,0,0,113.55,406Z" transform="translate(-22.64 -107.28)"/><path class="cls-1" d="M165.1,267.88a3,3,0,1,1-3,3A3,3,0,0,1,165.1,267.88Z" transform="translate(-22.64 -107.28)"/><path class="cls-1" d="M108.18,328.18a3,3,0,1,1-3,3A3,3,0,0,1,108.18,328.18Z" transform="translate(-22.64 -107.28)"/><path class="cls-1" d="M122.6,403a3,3,0,1,1-3,3A3,3,0,0,1,122.6,403Z" transform="translate(-22.64 -107.28)"/><path class="cls-12" d="M220.54,275.22s1.65,13,8.44,43.29a52.89,52.89,0,0,0,2.28,5.43s2.11,1.13,13.44,4.89c9.32,3.08,9.9-2.21-6.93-10l.92-45S228,264.56,220.54,275.22Z" transform="translate(-22.64 -107.28)"/><path class="cls-13" d="M229.11,318.49l.59,6.12,19.11,7s5.91,1.09,3.51-3.21-11.28-9.13-14.55-9.62c0,0,8.11,4.53,9.85,7.71C247.62,326.51,238.94,322.2,229.11,318.49Z" transform="translate(-22.64 -107.28)"/><path class="cls-12" d="M242.62,278.49s5.46,11.93,21,38.79a53,53,0,0,0,3.81,4.5s2.34.45,14.28.64c9.82.16,8.79-5.06-9.61-7.49l-12.58-43.22S246.57,266.09,242.62,278.49Z" transform="translate(-22.64 -107.28)"/><path class="cls-13" d="M263.74,317.22l2.39,5.67,20.34,1s6-.73,2.39-4.11-13.49-5.35-16.76-4.83c0,0,9.1,1.89,11.7,4.41C283.8,319.34,274.23,317.82,263.74,317.22Z" transform="translate(-22.64 -107.28)"/><path class="cls-14" d="M158.9,226.9c-.32,13.88,10.37,16.58,26.06,18.68,17.94,2.4,39.41-2.45,39.41-2.45,4.48,12.05,17.35,38.05,25.55,51.12l14.38-6.38s-16-61.59-21.56-66.07-37.62-8.27-62.38-8.78C180.36,213,159.27,211.07,158.9,226.9Z" transform="translate(-22.64 -107.28)"/><path class="cls-13" d="M140,207.26s-2.91,12.55.45,23.67c4,13.29,19.8,14.7,35.59,15.81,18.05,1.26,37.51-4,37.51-4,.47,10.4,7.95,39,10.81,54.16l14.08-1.12s2.67-72.65-5.78-78.77c-5.72-4.14-31-4.67-55.79-3.63l-5.93-9.59C151,205.5,140,207.26,140,207.26Z" transform="translate(-22.64 -107.28)"/><path class="cls-14" d="M238.55,278.06s.35,7.6-.11,17.72l-10.65.85s-.09-2.16,3.78-5.18c2.07-1.61,2.4-3.2,3.15-7.57S236.85,277.92,238.55,278.06Z" transform="translate(-22.64 -107.28)"/><path class="cls-14" d="M176.87,213.38s-13.21,5.71-21.52,3c-3.51-1.13-10.51-9.69-10.51-9.69s22.64-2.77,26.1-2.94Z" transform="translate(-22.64 -107.28)"/><path class="cls-14" d="M213.57,242.8a36.63,36.63,0,0,0-.54-6.48c-.58-2.64-7.64,0-14.27,4.58s-7.35,4-9.36,5.75C189.4,246.65,208,244.87,213.57,242.8Z" transform="translate(-22.64 -107.28)"/><path class="cls-15" d="M142.25,148.45a6.85,6.85,0,0,1-.11-2.08A7.1,7.1,0,0,1,148.6,140a6.29,6.29,0,0,1,1.44,0,2.4,2.4,0,0,0,2.37-1.13,7.1,7.1,0,0,1,12.55.58,1.77,1.77,0,0,0,2.27.9,7,7,0,0,1,3-.49,7.09,7.09,0,0,1,5.4,11.27,2.83,2.83,0,0,0-.4,2.58,8.41,8.41,0,0,1,.42,2.62,8.31,8.31,0,0,1-8.3,8.31h0a3.21,3.21,0,0,0-2.73,1.51,8.3,8.3,0,0,1-14,.21,3.41,3.41,0,0,0-2.83-1.51h-.57A8.31,8.31,0,0,1,141.54,151,2.87,2.87,0,0,0,142.25,148.45Z" transform="translate(-22.64 -107.28)"/><path class="cls-16" d="M166.64,152.06s.46,6.92-1.12,9.54a5.81,5.81,0,0,1-3.53,3s0,3.72.33,4a1.65,1.65,0,0,0,.72.27s-.71,6.73-4.62,6.23a8,8,0,0,1-7.28-6.58s1.88-.6,2.12-1.09.45-7.08.62-8c-.49.2-3.19-.65-3-2.57.53-2.23,2.7-1.27,3.48-.32,0,0,.46-.32.68-1.79s1.09-1.57,2-2.14,1.17-1.35,1.71-1.8c1.08-1.32,3.14-.37,3.14-.37,1.24-.37,1.92-.9,3.3-.42C166,150.27,166.42,150.38,166.64,152.06Z" transform="translate(-22.64 -107.28)"/><path class="cls-12" d="M162,164.56s-4.94,2.19-7.72-3.69c0,0,1.13,7.08,7.77,5.76Z" transform="translate(-22.64 -107.28)"/><path class="cls-12" d="M153.71,158.16a.21.21,0,0,0,.15-.11.2.2,0,0,0-.09-.25L152,157a.18.18,0,0,0-.25.09.18.18,0,0,0,.09.25l1.75.82A.18.18,0,0,0,153.71,158.16Z" transform="translate(-22.64 -107.28)"/><path class="cls-12" d="M162.57,159c.39,0,.77-.2.83-.6a11,11,0,0,0-.93-3,.19.19,0,0,0-.25-.1.19.19,0,0,0-.1.25,10.29,10.29,0,0,1,.9,2.82c0,.32-.88.31-1.26.26a.19.19,0,0,0-.21.16.19.19,0,0,0,.16.22A3.61,3.61,0,0,0,162.57,159Z" transform="translate(-22.64 -107.28)"/><path class="cls-17" d="M164.94,155.79a.54.54,0,1,1-.55-.57A.56.56,0,0,1,164.94,155.79Z" transform="translate(-22.64 -107.28)"/><path class="cls-17" d="M160.51,153.83a.16.16,0,0,0,.13-.08.19.19,0,0,0,0-.26,1.88,1.88,0,0,0-2.35.21.18.18,0,0,0,0,.27.18.18,0,0,0,.26,0,1.48,1.48,0,0,1,1.87-.17A.17.17,0,0,0,160.51,153.83Z" transform="translate(-22.64 -107.28)"/><path class="cls-17" d="M165.31,153.61a.14.14,0,0,0,.11-.06.19.19,0,0,0,0-.27,1.41,1.41,0,0,0-1.79,0,.17.17,0,0,0,0,.26.19.19,0,0,0,.26,0s.77-.56,1.32-.06A.17.17,0,0,0,165.31,153.61Z" transform="translate(-22.64 -107.28)"/><ellipse class="cls-17" cx="159.94" cy="156.14" rx="0.55" ry="0.6" transform="translate(-28.1 -101.49) rotate(-2.04)"/><path class="cls-12" d="M162.38,160.92h0a.19.19,0,1,0,0-.37h0c-.06,0-2.3.28-3-.86a.18.18,0,0,0-.26-.06.19.19,0,0,0-.06.26C159.83,161.22,162.19,161,162.38,160.92Z" transform="translate(-22.64 -107.28)"/><g id="Baju"><path class="cls-16" d="M114.84,230.43c-3.18,1.28-7.45,5.08-11.91,9.34a.83.83,0,0,0-.06,1.14,1,1,0,0,0,.23.18.82.82,0,0,0,.83,0l4.22-2.59-6.46,6.91a1,1,0,0,0-.09,1.19.95.95,0,0,0,1.4.19l4.56-3.81-5.14,5.67a.86.86,0,0,0,.09,1.24.57.57,0,0,0,.13.08.87.87,0,0,0,1-.11l6-5.29-3,5.91a1.15,1.15,0,0,0,1.32,1.63,1.17,1.17,0,0,0,.67-.47l6.49-9.62-.2,2.54-1.73,2.38a1.87,1.87,0,0,0-.46,1.58.64.64,0,0,0,.34.48.67.67,0,0,0,.8-.1l3.43-3.37a1.31,1.31,0,0,0,.37-.68,38.52,38.52,0,0,0,2.26-11.35l.1-.11-5-3.63C115,230,114.92,230.2,114.84,230.43Z" transform="translate(-22.64 -107.28)"/><path class="cls-16" d="M214.58,195.5c3.38-.58,8.35-3.39,13.62-6.61a.82.82,0,0,0,.3-1.1.79.79,0,0,0-.19-.22.82.82,0,0,0-.81-.16l-4.68,1.64,7.78-5.39a1,1,0,0,0,.33-1.15.9.9,0,0,0-.25-.35,1,1,0,0,0-1.07-.13l-5.26,2.76,6.22-4.45a.85.85,0,0,0,.17-1.23.47.47,0,0,0-.1-.1.85.85,0,0,0-1-.11l-7,3.91,4.15-5.15a1.15,1.15,0,0,0-.17-1.62,1.14,1.14,0,0,0-1.52.06l-8.39,8,.74-2.44,2.19-2a1.9,1.9,0,0,0,.79-1.44.68.68,0,0,0-1-.61l-4.06,2.56a1.37,1.37,0,0,0-.51.58,38.49,38.49,0,0,0-4.61,10.62l-.12.08,4.08,4.61C214.33,195.92,214.45,195.71,214.58,195.5Z" transform="translate(-22.64 -107.28)"/><path class="cls-18" d="M159.15,173l5.16-5.15a.59.59,0,0,1,.32-.17l.47-.1a1.06,1.06,0,0,1,1.07.42l2.42,3.35a1,1,0,0,0,.78.41l3.77.09a4.06,4.06,0,0,1,2.34.81c4.28,3.22,20.33,15.44,22.5,19.33l5.16-3.71L202.07,187a1.12,1.12,0,0,1,.09-1.52l3.89-3.79a.84.84,0,0,1,1.11-.06l15.78,12.6a1,1,0,0,1,.18,1.31l-3.52,5a1.22,1.22,0,0,1-1.51.4l-1.06-.5s-8.07,13.89-11.11,16.14c0,0-6.48,6.75-13.76,0l-16.54-15.74-3.43,7H139.77l-1.19-5.16-15.5,36.13a1.26,1.26,0,0,1-1.68.66l-18.31-8a1.19,1.19,0,0,1-.59-1.62l2.17-4.34a1,1,0,0,1,1.35-.48l1.74.78,15.79-40.42a23.7,23.7,0,0,1,4.5-7.34,16.21,16.21,0,0,1,7.45-4.94c.2-.06.41-.11.61-.18l10.28-3.6,2.94-2.26a.87.87,0,0,1,1,0Z" transform="translate(-22.64 -107.28)"/><path class="cls-19" d="M168,171.71l-1.12,2.79-1.78,4.4-.41,1,.76-.2-2-2.2-3.2-3.48-.74-.8a.44.44,0,0,0-.63,0l-2,2.06-3.2,3.27-.74.75.71.09-.61-1-1.45-2.47-1.76-3-1.52-2.58c-.24-.41-.48-.84-.74-1.25v0a.45.45,0,0,0-.61-.16.46.46,0,0,0-.16.62l.6,1,1.46,2.47,1.75,3,1.52,2.57c.25.42.48.85.74,1.26v0a.47.47,0,0,0,.71.09l2-2.07,3.2-3.27.73-.75h-.63l2,2.2,3.2,3.48.74.8a.45.45,0,0,0,.44.12.47.47,0,0,0,.31-.32c.38-.92.75-1.85,1.12-2.78l1.78-4.4.41-1a.45.45,0,0,0-.32-.55.46.46,0,0,0-.55.31Z" transform="translate(-22.64 -107.28)"/><path class="cls-19" d="M158.92,173.94a2.44,2.44,0,0,0,.1.24l0,.12,0,.07c-.07-.17,0-.05,0,0l.17.39c.32.78.63,1.57.93,2.36.92,2.4,1.75,4.84,2.44,7.33.36,1.33.69,2.68.93,4.05q.09.48.15,1l0,.12s0,.15,0,0l0,.24c0,.15,0,.31,0,.46.06.6.1,1.21.1,1.81a23,23,0,0,1-.56,4.44c-.35,1.71-.79,3.4-1.28,5.07-.6,2-1.28,4.06-2.06,6l0,.09a.46.46,0,0,0,.31.56.46.46,0,0,0,.55-.32c.68-1.67,1.26-3.38,1.79-5.1s1-3.26,1.34-4.92a32.27,32.27,0,0,0,.82-5.07,18.31,18.31,0,0,0-.21-3.7,39.63,39.63,0,0,0-.83-4,74.21,74.21,0,0,0-2.42-7.58c-.33-.89-.67-1.78-1-2.66-.19-.46-.37-.93-.58-1.38l0-.06a.45.45,0,0,0-.77.45Z" transform="translate(-22.64 -107.28)"/><path class="cls-19" d="M173.52,182.34a1.54,1.54,0,0,1,.17.19l.21.23.12.15s.09.12,0,.05,0,0,0,0a13.9,13.9,0,0,1,1.35,2.21c.13.25.25.51.36.77l0,.09c0,.05,0-.08,0,0l0,0,.09.22c.05.15.11.3.17.45a16,16,0,0,1,.57,1.94c.08.37.15.73.21,1.1,0,.09,0,.18,0,.28v.06c0-.1,0,0,0,0a1,1,0,0,0,0,.17l.06.59a18.81,18.81,0,0,1,0,2.6c0,.23,0,.46-.06.68l0,.33a1.1,1.1,0,0,0,0,.18l0,.1c0-.05,0,0,0,0q-.1.75-.27,1.5a23.61,23.61,0,0,1-.93,3.18c-.1.27-.21.55-.32.82a.45.45,0,0,0,.31.55.47.47,0,0,0,.56-.31,23,23,0,0,0,1.62-6.37,18.08,18.08,0,0,0-.22-5.14,16.43,16.43,0,0,0-1.25-3.86,14.93,14.93,0,0,0-1.4-2.42,9.21,9.21,0,0,0-.84-1h0a.45.45,0,0,0-.64.64Z" transform="translate(-22.64 -107.28)"/><path class="cls-19" d="M197.33,191.89c-.84.78-1.66,1.57-2.48,2.37-1.55,1.51-3.08,3-4.51,4.66a18.52,18.52,0,0,0-1.81,2.32.45.45,0,0,0,.78.45c.09-.15.19-.29.29-.43l.16-.23.09-.12,0,0,0,0c.28-.36.57-.71.86-1.05.71-.81,1.44-1.59,2.18-2.36q2-2.09,4.14-4.08l.88-.83a.44.44,0,0,0,0-.63.46.46,0,0,0-.64,0Z" transform="translate(-22.64 -107.28)"/><path class="cls-19" d="M202.76,188.55l1.52,1.23,3.63,2.94,4.39,3.55,3.8,3.07,1.84,1.5,0,0a.48.48,0,0,0,.64,0,.47.47,0,0,0,0-.64L217.09,199l-3.64-2.93-4.39-3.56-3.8-3.07-1.84-1.49,0,0a.46.46,0,0,0-.63,0,.44.44,0,0,0,0,.63Z" transform="translate(-22.64 -107.28)"/><path class="cls-19" d="M108.1,226.24l1.69.71,4,1.71,4.89,2.07,4.22,1.78,1.4.58c.22.1.43.2.66.28h0a.45.45,0,0,0,.55-.31.46.46,0,0,0-.31-.55l-1.69-.71-4-1.71L114.65,228l-4.22-1.78-1.4-.58c-.22-.1-.43-.2-.66-.28l0,0a.45.45,0,0,0-.24.87Z" transform="translate(-22.64 -107.28)"/></g><polygon class="cls-20" points="291.69 189.32 266.91 208.17 274.94 214.75 301.26 198.51 291.69 189.32"/><path class="cls-6" d="M421.69,401.7c-13,19.89-36.42,30.59-91.71,20.53s-45.72-55.47-26.58-61.32,49.5-37.82,53.16-42.35A44,44,0,0,1,367.5,307.7a25.09,25.09,0,0,1,2.57-1.51,17.85,17.85,0,0,1,10.15-2.14,12.41,12.41,0,0,1,3.44.86c10.78,4.3,16.53,22.23,19.42,29.17C406.27,341.73,434.71,381.81,421.69,401.7Z" transform="translate(-22.64 -107.28)"/><path class="cls-7" d="M383.06,368.85l-.19,0a.78.78,0,0,1-.77-.55c-4.76-18.14-.22-61.87,0-63.72a.76.76,0,0,1,.06-.2,13.56,13.56,0,0,1,1.52.51c-.32,3.11-4.56,45.74,0,63.09A.72.72,0,0,1,383.06,368.85Z" transform="translate(-22.64 -107.28)"/><path class="cls-7" d="M370.07,306.19c-2.93,5.51-28.27,52.93-33.89,59.07a.87.87,0,0,1-1.12.1.64.64,0,0,1-.12-1c5-5.45,26.87-46.05,32.56-56.68A25.09,25.09,0,0,1,370.07,306.19Z" transform="translate(-22.64 -107.28)"/><path class="cls-7" d="M380.4,424.45c-.24-.15-25.33-17.27-28.66-26.08-3.27-8.63,16.37-27.66,16.57-27.86a.64.64,0,0,0-.05-1,.86.86,0,0,0-1.12.05c-.78.74-17.64,17.09-17.33,27-10.32-.6-33.2-2.25-45.34-5.63a148.85,148.85,0,0,0,6.63-26,.72.72,0,0,0-.69-.79.8.8,0,0,0-.89.61c0,.22-3.27,22.13-11.62,37.06a.67.67,0,0,0,.36.94.91.91,0,0,0,.35.07.81.81,0,0,0,.72-.39A75.6,75.6,0,0,0,304,392.26c12.43,3.46,35.76,5.13,46,5.71a5.8,5.8,0,0,0,.24.84c3.5,9.24,28.27,26.16,29.24,26.77a.86.86,0,0,0,.47.14.82.82,0,0,0,.64-.29A.65.65,0,0,0,380.4,424.45Z" transform="translate(-22.64 -107.28)"/><path class="cls-7" d="M342.68,339c.57-.73,18.08-20.49,36.58-4.89,4.84,10,15.77,22.27,18.08,23.85s-5.25,18.08-54.66,9.65c-16.62-2.76-41-.17-31.33-7.19S338.05,344.94,342.68,339Z" transform="translate(-22.64 -107.28)"/><path class="cls-18" d="M287.25,344.51a125.48,125.48,0,0,1,42.81-8.66c18-.63,42.52,13.35,22.72,24-10,5.35-18.09,10.29-56.23,8.22C264.29,366.31,267,352.4,287.25,344.51Z" transform="translate(-22.64 -107.28)"/><path class="cls-18" d="M365.2,342.69c2.74.48,8.36.65,12.12,4,2.64,2.35,4,23.52-11.48,25-16.65,1.6-25.72-2.65-26.71-6.12S339.29,338.15,365.2,342.69Z" transform="translate(-22.64 -107.28)"/><path class="cls-19" d="M365.84,371.67c7.35-.7,10.9-5.83,12.32-11.28-3.26,7.14-16.12,8.14-16.12,8.14s-5.52-2.32-6.85-2.75-1.08,1.24-2.21,4.06a4.07,4.07,0,0,0-.34,1.84A63.65,63.65,0,0,0,365.84,371.67Z" transform="translate(-22.64 -107.28)"/><path class="cls-15" d="M244.86,418.9C254.07,418,258,408.4,258,408.4l11.06,4.74s.95,3.89-.19,14.65c0,0-1.6,2-8.17,1.49s-20.8,1.9-28.94-2.8l.46-3.73S231.9,420.21,244.86,418.9Z" transform="translate(-22.64 -107.28)"/><path class="cls-18" d="M290.12,368.58c.69,6.11-16.08,49.94-16.08,49.94-11-1.42-20.26-9.07-20.26-9.07,2.39-3.85,16.44-52.86,20.16-56.28C282.18,345.58,289.48,363,290.12,368.58Z" transform="translate(-22.64 -107.28)"/><path class="cls-19" d="M276.49,403c-4.8,10.73-14.53,9.78-22.66,6.48.47.38,9.51,7.65,20.21,9,0,0,16.11-43.52,16.91-49.61.21-1.63,5.85-.6,4.57-3.46l-8.71-4.74S285.62,382.64,276.49,403Z" transform="translate(-22.64 -107.28)"/><path class="cls-15" d="M328.09,431.81c.73-3.51,1.27-8.31,1.27-8.31,3-5,15,.47,15,.47-2.29,4.7,3.23,10.56-.44,12.72s-1.27,4.76-6.26,5.67c-8.57,1.55-13.64-.54-13.64-.54s-.93-.95-.49-3.79C323.92,435.57,327.35,435.32,328.09,431.81Z" transform="translate(-22.64 -107.28)"/><path class="cls-18" d="M356.45,351.34c3.32,2.64,11.54,6.34,11.54,6.34s-6.85,4.51-6.85,19.48-16.43,51.54-16.43,51.54-.68-1.56-7.33-3-9.69-1.07-9.69-1.07c1.86-14.09,10.75-44.56,11.13-60.89S353.12,348.69,356.45,351.34Z" transform="translate(-22.64 -107.28)"/><path class="cls-19" d="M325.52,368.05c-1.1.09-2.25.17-3.44.24l-1,0c-1,.06-2.11.09-3.22.12s-2.26.05-3.46.07c-5.11,0-11-.11-17.87-.48-.17,0-.32,0-.48,0-2.21-.13-4.26-.32-6.14-.55.08.41.14.77.18,1.11a5.63,5.63,0,0,1,0,.91c-.26-.75-.53-1.44-.8-2.1-1.79-4.36-3.59-6.85-1.69-6.67a15.85,15.85,0,0,1,4.07,1.41C300.12,365.8,325.15,368,325.52,368.05Z" transform="translate(-22.64 -107.28)"/><path class="cls-21" d="M380.89,294.62q-3.5,25-7,49.95-11.22-1.57-22.52-3.1-10.8-1.47-21.5-2.87L329.78,305l0-11.75,18.13-10.68,4.38-2.59,10.79,0,4.31,3.54Z" transform="translate(-22.64 -107.28)"/><path class="cls-21" d="M346.33,281l-15.55,2.77a4.83,4.83,0,0,0-2.13.92l-17.22,12.82L319,312.62,329.78,305l2.31-1.64,17.08-19.78,3.1-3.59Z" transform="translate(-22.64 -107.28)"/><path class="cls-22" d="M410.14,335.3a8.69,8.69,0,0,1-6.23,7.67,8.09,8.09,0,0,1-2.33.36,7.39,7.39,0,0,1-.94,0,8.64,8.64,0,0,1-6.08-3.33l-13.86-21.7,15.91-8.94,12.23,18.94a8.71,8.71,0,0,1,1.39,5.08l-.07,1.62C410.16,335.07,410.15,335.19,410.14,335.3Z" transform="translate(-22.64 -107.28)"/><path class="cls-21" d="M383.79,289.46a5.08,5.08,0,0,0-2.34-1.95L369,282.42l-6-2.44,1.57,5,5.93,17.38,10.14,15.89,15.91-8.94Z" transform="translate(-22.64 -107.28)"/><path class="cls-22" d="M408.22,329l-12-21.57s2.62-9.48,1.37-10.14c-2.43-1.28-4.72,7.16-4.72,7.16s-7.14-2.46-8.32-1.48-4.48,8-2.58,10a34.67,34.67,0,0,0,6.33,4.42l8.93,20.48Z" transform="translate(-22.64 -107.28)"/><path class="cls-23" d="M397,338l-8.9-20.4c-.7-.39-5.36-3-6.34-4.46l.44-.3c1,1.4,6.19,4.31,6.24,4.33l.08,0,0,.08,8.93,20.48Z" transform="translate(-22.64 -107.28)"/><rect class="cls-23" x="385.01" y="303.66" width="0.54" height="4.7" transform="translate(-72.23 428.88) rotate(-66.35)"/><rect class="cls-23" x="383.97" y="306.61" width="0.54" height="5.25" transform="translate(-101.73 371.04) rotate(-58.88)"/><path class="cls-24" d="M410.14,335.3a8.69,8.69,0,0,1-6.23,7.67,8.09,8.09,0,0,1-2.33.36,7.22,7.22,0,0,1,7.8-8.13A6.31,6.31,0,0,1,410.14,335.3Z" transform="translate(-22.64 -107.28)"/><path class="cls-22" d="M360.39,270.42,360,277.1,359.9,279l-.34,5.94a3.87,3.87,0,0,1-4.08,3.64l-2.19-.13a3.86,3.86,0,0,1-3.64-4.08l.41-7.26,0-.44.38-6.85Z" transform="translate(-22.64 -107.28)"/><path class="cls-15" d="M362.74,271.71l4.63-6.57c2.51-3.34-.72-7.3-3.24-8.5l-8.74-4.19a5.7,5.7,0,0,0-8.12,4.49l-.46,5.62Z" transform="translate(-22.64 -107.28)"/><path class="cls-22" d="M348,276h0c3.57,1.71,10.62.57,12.8-4l3.7-6.68a9.1,9.1,0,0,0-4.28-12.15h0a9.1,9.1,0,0,0-12.15,4.27l-2.89,7.07C343,269.09,344.31,274.24,348,276Z" transform="translate(-22.64 -107.28)"/><path class="cls-15" d="M352.57,247.71c3.72-.56,8.63,3.43,11,6.21.35-.9.86-.54.86-.54,4.66,3.92,1.34,7.28,1.34,7.28h-.07c0,1.43-.46,4.24-3.28,8.38a43.07,43.07,0,0,1,2.25-8.41c-2.84-.13-10.94-1-14.51-4.34l-.66-1.26a5.37,5.37,0,0,1-.44-.94S347.3,248.51,352.57,247.71Z" transform="translate(-22.64 -107.28)"/><path class="cls-22" d="M360.48,272a2.44,2.44,0,0,0,3.45-.26l.87-1a2.27,2.27,0,0,0,.54-1.11,2.43,2.43,0,0,0-.21-1.59s0-.08-.54-.69a.12.12,0,0,0-.06-.06A2,2,0,0,0,364,267l-.19-.08-.16-.06-.15,0-.21,0a2.29,2.29,0,0,0-1.16.12,2.55,2.55,0,0,0-1.05.71l-.32.38-.55.64A2.44,2.44,0,0,0,360.48,272Z" transform="translate(-22.64 -107.28)"/><path class="cls-15" d="M350.38,255.07a9.37,9.37,0,0,1-3.23,4.53s.92-4.5,2.16-5.78S350.4,255,350.4,255Z" transform="translate(-22.64 -107.28)"/><path class="cls-15" d="M364.68,260.63s-4.6,8.23-3.62,7.85,1.43-2.11,2.59-1.66,1.62-5.46,1.62-5.46Z" transform="translate(-22.64 -107.28)"/><path class="cls-25" d="M350,276.56s5.56,2.46,8.68-4.16c0,0-1.26,8-8.74,6.48Z" transform="translate(-22.64 -107.28)"/><path class="cls-12" d="M360.78,271a.3.3,0,0,1-.23-.1.27.27,0,0,1,0-.38l2.14-1.7a.26.26,0,0,1,.37.05.25.25,0,0,1,0,.37l-2.14,1.7A.35.35,0,0,1,360.78,271Z" transform="translate(-22.64 -107.28)"/><path class="cls-12" d="M348.81,267.7c-.44-.33-.81-.79-.6-1.31.34-.86,3-2.84,3.26-3.06a.26.26,0,0,1,.37.05.27.27,0,0,1,0,.38,14.19,14.19,0,0,0-3.08,2.83c-.17.43.87,1,1.36,1.2a.26.26,0,0,1,.15.35.26.26,0,0,1-.34.15A4.92,4.92,0,0,1,348.81,267.7Z" transform="translate(-22.64 -107.28)"/><path class="cls-17" d="M348.17,262.05a.76.76,0,1,0,1.08-.31A.8.8,0,0,0,348.17,262.05Z" transform="translate(-22.64 -107.28)"/><path class="cls-17" d="M355,262.76a.35.35,0,0,1-.1-.19.27.27,0,0,1,.24-.29,2.65,2.65,0,0,1,2.74,1.9.27.27,0,0,1-.18.33.28.28,0,0,1-.34-.18,2.07,2.07,0,0,0-2.17-1.52A.26.26,0,0,1,355,262.76Z" transform="translate(-22.64 -107.28)"/><path class="cls-17" d="M349.24,259.12a.26.26,0,0,1,.11-.47,2,2,0,0,1,2.18,1.29.27.27,0,0,1-.14.36.27.27,0,0,1-.35-.14c0-.06-.55-1.22-1.58-1A.25.25,0,0,1,349.24,259.12Z" transform="translate(-22.64 -107.28)"/><ellipse class="cls-17" cx="354.07" cy="265.98" rx="0.85" ry="0.78" transform="translate(-80.93 320.17) rotate(-58.3)"/><path class="cls-12" d="M347.72,270.15h0a.27.27,0,0,1,0-.37.28.28,0,0,1,.38-.06h0c.07,0,2.63,2,4.3,1a.28.28,0,0,1,.37.11.27.27,0,0,1-.11.36C350.64,272.3,347.94,270.31,347.72,270.15Z" transform="translate(-22.64 -107.28)"/><path class="cls-6" d="M377.37,344.08a.53.53,0,0,1-.56.49l-45.59-3.41a.26.26,0,0,1-.24-.29l.11-1.54,46.38,3.47Z" transform="translate(-22.64 -107.28)"/><path class="cls-6" d="M371.75,341.66l1.45.11-.06.71-1.63-.12,0-.54A.19.19,0,0,1,371.75,341.66Z" transform="translate(-22.64 -107.28)"/><path class="cls-6" d="M369.86,341.52l1.45.11-.06.71-1.63-.12,0-.54A.18.18,0,0,1,369.86,341.52Z" transform="translate(-22.64 -107.28)"/><path class="cls-6" d="M368,341.38l1.45.11-.05.71-1.63-.12,0-.54A.17.17,0,0,1,368,341.38Z" transform="translate(-22.64 -107.28)"/><path class="cls-6" d="M360.1,340.79l1.45.11-.05.71-1.63-.12,0-.54A.17.17,0,0,1,360.1,340.79Z" transform="translate(-22.64 -107.28)"/><path class="cls-6" d="M358.21,340.65l1.45.11-.05.71-1.63-.12,0-.54A.18.18,0,0,1,358.21,340.65Z" transform="translate(-22.64 -107.28)"/><path class="cls-6" d="M336.05,339l1.45.11-.05.71-1.63-.12,0-.54A.18.18,0,0,1,336.05,339Z" transform="translate(-22.64 -107.28)"/><path class="cls-6" d="M334.16,338.85l1.45.11-.05.71-1.63-.12,0-.54A.17.17,0,0,1,334.16,338.85Z" transform="translate(-22.64 -107.28)"/><path class="cls-6" d="M362.05,340.93l5.41.41,0,.71-5.59-.42,0-.53A.18.18,0,0,1,362.05,340.93Z" transform="translate(-22.64 -107.28)"/><path class="cls-6" d="M328,338.39l5.42.4-.05.72-5.6-.42,0-.54A.18.18,0,0,1,328,338.39Z" transform="translate(-22.64 -107.28)"/><path class="cls-6" d="M338.12,339.14l19.25,1.44-.06.72-19.43-1.46,0-.53A.2.2,0,0,1,338.12,339.14Z" transform="translate(-22.64 -107.28)"/><path class="cls-26" d="M324.36,338.11l3.94.3a.19.19,0,0,1,.17.19l-.05.54-4.52-.34,0-.31A.41.41,0,0,1,324.36,338.11Z" transform="translate(-22.64 -107.28)"/><path class="cls-27" d="M318.91,337.71l3.94.29a.19.19,0,0,1,.17.19l0,.54-4.53-.34,0-.31A.41.41,0,0,1,318.91,337.71Z" transform="translate(-22.64 -107.28)"/><path class="cls-28" d="M313.46,337.3l3.94.29a.19.19,0,0,1,.17.19l0,.54L313,338l0-.31A.4.4,0,0,1,313.46,337.3Z" transform="translate(-22.64 -107.28)"/><path class="cls-29" d="M308,336.89l3.94.3a.18.18,0,0,1,.17.19l0,.53-4.53-.34,0-.31A.4.4,0,0,1,308,336.89Z" transform="translate(-22.64 -107.28)"/><path class="cls-30" d="M303.47,336.55l2.07.16a.17.17,0,0,1,.16.19l0,.53-2.64-.2,0-.31A.4.4,0,0,1,303.47,336.55Z" transform="translate(-22.64 -107.28)"/><path class="cls-31" d="M300.26,336.31l2.06.15a.19.19,0,0,1,.17.19l0,.54-2.65-.2,0-.31A.4.4,0,0,1,300.26,336.31Z" transform="translate(-22.64 -107.28)"/><path class="cls-32" d="M297.24,336.08l2.06.16a.17.17,0,0,1,.16.19l0,.54-2.64-.2,0-.31A.41.41,0,0,1,297.24,336.08Z" transform="translate(-22.64 -107.28)"/><path class="cls-7" d="M285.5,299.12l48.56,3.63A1.47,1.47,0,0,1,335.4,304l6.33,36.16-51-3.82-6.29-36A1,1,0,0,1,285.5,299.12Z" transform="translate(-22.64 -107.28)"/><path class="cls-6" d="M341.68,341.41a.54.54,0,0,1-.57.49L291,338.15a.26.26,0,0,1-.24-.29l.11-1.53,50.89,3.8Z" transform="translate(-22.64 -107.28)"/><rect class="cls-7" x="345.22" y="101.18" width="41.24" height="19.11" rx="1.49"/><rect class="cls-6" x="358.74" y="131.16" width="53.64" height="19.84" rx="1.73"/><path class="cls-33" d="M285.35,124.69c-13.46,0-24.06,8.43-24.06,8.43s4.92,28.67,24.06,37.66c19.14-9,24.06-37.66,24.06-37.66S298.81,124.69,285.35,124.69Z" transform="translate(-22.64 -107.28)"/><circle class="cls-14" cx="285.35" cy="145.02" r="11.39" transform="translate(56.5 282.55) rotate(-76.83)"/><polygon class="cls-1" points="260.94 43.54 256.48 39.08 258.6 36.96 260.94 39.3 267.56 32.68 269.68 34.8 260.94 43.54"/><rect class="cls-7" x="308.23" y="54.53" width="30.57" height="25.79"/><path class="cls-7" d="M358.7,167H333.61V156.93a12.55,12.55,0,0,1,25.09,0Zm-20.21-4.88h15.33v-5.23a7.67,7.67,0,0,0-15.33,0Z" transform="translate(-22.64 -107.28)"/><path class="cls-34" d="M349.85,172.3a3.7,3.7,0,1,0-5.45,3.26v5.24h3.5v-5.24A3.7,3.7,0,0,0,349.85,172.3Z" transform="translate(-22.64 -107.28)"/><path class="cls-7" d="M220.68,107.28H190.53a9.6,9.6,0,0,0-9.59,9.59v16.2a9.58,9.58,0,0,0,8.57,9.53,18.41,18.41,0,0,1-.91,6.08l11.87-6h20.21a9.59,9.59,0,0,0,9.59-9.59v-16.2A9.59,9.59,0,0,0,220.68,107.28Z" transform="translate(-22.64 -107.28)"/><circle class="cls-1" cx="169.47" cy="18.21" r="1.92"/><circle class="cls-1" cx="182.97" cy="18.21" r="1.92"/><circle class="cls-1" cx="196.46" cy="18.21" r="1.92"/><path class="cls-7" d="M292,222.21h30.14a9.59,9.59,0,0,1,9.59,9.59V248a9.58,9.58,0,0,1-8.56,9.53,18.26,18.26,0,0,0,.9,6.08l-11.86-6H292a9.6,9.6,0,0,1-9.6-9.59V231.8A9.59,9.59,0,0,1,292,222.21Z" transform="translate(-22.64 -107.28)"/><circle class="cls-1" cx="297.94" cy="133.13" r="1.92"/><circle class="cls-1" cx="284.44" cy="133.13" r="1.92"/><circle class="cls-1" cx="270.94" cy="133.13" r="1.92"/></g><g id="TEXTS"><text class="cls-35" transform="translate(351.62 115.03)">css</text><text class="cls-36" transform="translate(365.11 145.7)">HTML</text></g></svg>